<mxfile host="app.diagrams.net" modified="2021-10-26T22:07:49.687Z" agent="5.0 (Windows NT 10.0; Win64; x64) AppleWebKit/537.36 (KHTML, like Gecko) Chrome/95.0.4638.54 Safari/537.36" etag="681MszXZo8JukFo_vceE" version="15.5.9" type="github">
  <diagram name="Page-1" id="c4acf3e9-155e-7222-9cf6-157b1a14988f">
    <mxGraphModel dx="1718" dy="1588" grid="1" gridSize="10" guides="1" tooltips="1" connect="1" arrows="1" fold="1" page="1" pageScale="1" pageWidth="850" pageHeight="1100" background="none" math="0" shadow="0">
      <root>
        <mxCell id="0" />
        <mxCell id="1" parent="0" />
        <mxCell id="OfuU6t0mR4pwS1KONoR3-117" style="edgeStyle=orthogonalEdgeStyle;rounded=0;orthogonalLoop=1;jettySize=auto;html=1;fontFamily=Verdana;fontSize=10;strokeWidth=2;endArrow=diamondThin;endFill=1;startArrow=open;startFill=0;endSize=15;startSize=6;" parent="1" target="vSx6mATfrNihocP2TiyH-15" edge="1">
          <mxGeometry relative="1" as="geometry">
            <Array as="points">
              <mxPoint x="850" y="450" />
              <mxPoint x="850" y="450" />
            </Array>
            <mxPoint x="850.0011764705882" y="490" as="sourcePoint" />
            <mxPoint x="850.0011764705882" y="413.99999999999955" as="targetPoint" />
          </mxGeometry>
        </mxCell>
        <mxCell id="OfuU6t0mR4pwS1KONoR3-112" style="edgeStyle=orthogonalEdgeStyle;rounded=0;orthogonalLoop=1;jettySize=auto;html=1;fontFamily=Verdana;fontSize=10;endArrow=diamondThin;endFill=1;startArrow=open;startFill=0;strokeWidth=2;endSize=15;" parent="1" source="vSx6mATfrNihocP2TiyH-28" target="vSx6mATfrNihocP2TiyH-12" edge="1">
          <mxGeometry relative="1" as="geometry">
            <Array as="points">
              <mxPoint x="160" y="240" />
              <mxPoint x="40" y="240" />
            </Array>
            <mxPoint x="255" y="300" as="sourcePoint" />
          </mxGeometry>
        </mxCell>
        <mxCell id="OfuU6t0mR4pwS1KONoR3-115" style="edgeStyle=orthogonalEdgeStyle;rounded=0;orthogonalLoop=1;jettySize=auto;html=1;fontFamily=Verdana;fontSize=10;endArrow=diamondThin;endFill=1;startArrow=open;startFill=0;strokeWidth=2;endSize=15;" parent="1" source="vSx6mATfrNihocP2TiyH-15" target="vSx6mATfrNihocP2TiyH-12" edge="1">
          <mxGeometry relative="1" as="geometry">
            <mxPoint x="285" y="270" as="sourcePoint" />
            <Array as="points">
              <mxPoint x="480" y="324" />
              <mxPoint x="480" y="140" />
            </Array>
          </mxGeometry>
        </mxCell>
        <mxCell id="vSx6mATfrNihocP2TiyH-8" value="Buscador" style="swimlane;fontStyle=1;align=center;verticalAlign=top;childLayout=stackLayout;horizontal=1;startSize=26;horizontalStack=0;resizeParent=1;resizeParentMax=0;resizeLast=0;collapsible=1;marginBottom=0;hachureGap=4;pointerEvents=0;" parent="1" vertex="1">
          <mxGeometry x="-360" y="360" width="370" height="70" as="geometry" />
        </mxCell>
        <mxCell id="vSx6mATfrNihocP2TiyH-10" value="" style="line;strokeWidth=1;fillColor=none;align=left;verticalAlign=middle;spacingTop=-1;spacingLeft=3;spacingRight=3;rotatable=0;labelPosition=right;points=[];portConstraint=eastwest;" parent="vSx6mATfrNihocP2TiyH-8" vertex="1">
          <mxGeometry y="26" width="370" height="8" as="geometry" />
        </mxCell>
        <mxCell id="vSx6mATfrNihocP2TiyH-7" value="+ BuscarOfertas(Sistema, Emprendedor, List&amp;lt;string&amp;gt;): List&amp;lt;Oferta&amp;gt;" style="text;html=1;strokeColor=none;fillColor=none;align=left;verticalAlign=top;spacingLeft=4;spacingRight=4;whiteSpace=wrap;overflow=hidden;rotatable=0;points=[[0,0.5],[1,0.5]];portConstraint=eastwest;" parent="vSx6mATfrNihocP2TiyH-8" vertex="1">
          <mxGeometry y="34" width="370" height="36" as="geometry" />
        </mxCell>
        <mxCell id="vSx6mATfrNihocP2TiyH-12" value="Sistema&#xa;" style="swimlane;fontStyle=1;align=center;verticalAlign=top;childLayout=stackLayout;horizontal=1;startSize=26;horizontalStack=0;resizeParent=1;resizeParentMax=0;resizeLast=0;collapsible=1;marginBottom=0;hachureGap=4;pointerEvents=0;" parent="1" vertex="1">
          <mxGeometry x="-310" y="70" width="410" height="86" as="geometry" />
        </mxCell>
        <mxCell id="vSx6mATfrNihocP2TiyH-13" value="" style="line;strokeWidth=1;fillColor=none;align=left;verticalAlign=middle;spacingTop=-1;spacingLeft=3;spacingRight=3;rotatable=0;labelPosition=right;points=[];portConstraint=eastwest;" parent="vSx6mATfrNihocP2TiyH-12" vertex="1">
          <mxGeometry y="26" width="410" height="8" as="geometry" />
        </mxCell>
        <mxCell id="OfuU6t0mR4pwS1KONoR3-73" value="+ RegistrarEmpresa(string, string, string, Ubicacion): Empresa" style="text;strokeColor=none;fillColor=none;align=left;verticalAlign=top;spacingLeft=4;spacingRight=4;overflow=hidden;rotatable=0;points=[[0,0.5],[1,0.5]];portConstraint=eastwest;" parent="vSx6mATfrNihocP2TiyH-12" vertex="1">
          <mxGeometry y="34" width="410" height="26" as="geometry" />
        </mxCell>
        <mxCell id="OfuU6t0mR4pwS1KONoR3-74" value="+ RegistrarEmprendedor(string, string, string, Ubicacion): Emprendedor" style="text;strokeColor=none;fillColor=none;align=left;verticalAlign=top;spacingLeft=4;spacingRight=4;overflow=hidden;rotatable=0;points=[[0,0.5],[1,0.5]];portConstraint=eastwest;" parent="vSx6mATfrNihocP2TiyH-12" vertex="1">
          <mxGeometry y="60" width="410" height="26" as="geometry" />
        </mxCell>
        <mxCell id="vSx6mATfrNihocP2TiyH-15" value="Empresa" style="swimlane;fontStyle=1;align=center;verticalAlign=top;childLayout=stackLayout;horizontal=1;startSize=26;horizontalStack=0;resizeParent=1;resizeParentMax=0;resizeLast=0;collapsible=1;marginBottom=0;hachureGap=4;pointerEvents=0;" parent="1" vertex="1">
          <mxGeometry x="672.5" y="268" width="305" height="112" as="geometry" />
        </mxCell>
        <mxCell id="vSx6mATfrNihocP2TiyH-18" value="" style="line;strokeWidth=1;fillColor=none;align=left;verticalAlign=middle;spacingTop=-1;spacingLeft=3;spacingRight=3;rotatable=0;labelPosition=right;points=[];portConstraint=eastwest;" parent="vSx6mATfrNihocP2TiyH-15" vertex="1">
          <mxGeometry y="26" width="305" height="8" as="geometry" />
        </mxCell>
        <mxCell id="OfuU6t0mR4pwS1KONoR3-104" value="+ PublicarOferta(): Oferta" style="text;html=1;strokeColor=none;fillColor=none;align=left;verticalAlign=top;spacingLeft=4;spacingRight=4;whiteSpace=wrap;overflow=hidden;rotatable=0;points=[[0,0.5],[1,0.5]];portConstraint=eastwest;" parent="vSx6mATfrNihocP2TiyH-15" vertex="1">
          <mxGeometry y="34" width="305" height="26" as="geometry" />
        </mxCell>
        <mxCell id="vSx6mATfrNihocP2TiyH-120" value="+ ActualizarOferta(Oferta): void" style="text;html=1;strokeColor=none;fillColor=none;align=left;verticalAlign=top;spacingLeft=4;spacingRight=4;whiteSpace=wrap;overflow=hidden;rotatable=0;points=[[0,0.5],[1,0.5]];portConstraint=eastwest;" parent="vSx6mATfrNihocP2TiyH-15" vertex="1">
          <mxGeometry y="60" width="305" height="26" as="geometry" />
        </mxCell>
        <mxCell id="dwYmcji9vzRply6ok_k2-10" value="+ VerOfertasPropias(Date, Date, ICanal): List&amp;lt;Oferta&amp;gt;" style="text;html=1;strokeColor=none;fillColor=none;align=left;verticalAlign=top;spacingLeft=4;spacingRight=4;whiteSpace=wrap;overflow=hidden;rotatable=0;points=[[0,0.5],[1,0.5]];portConstraint=eastwest;" parent="vSx6mATfrNihocP2TiyH-15" vertex="1">
          <mxGeometry y="86" width="305" height="26" as="geometry" />
        </mxCell>
        <mxCell id="vSx6mATfrNihocP2TiyH-24" style="edgeStyle=orthogonalEdgeStyle;rounded=0;orthogonalLoop=1;jettySize=auto;html=1;fontFamily=Verdana;fontSize=10;endArrow=none;endFill=0;startArrow=open;startFill=0;dashed=1;strokeWidth=2;" parent="1" source="vSx6mATfrNihocP2TiyH-8" target="vSx6mATfrNihocP2TiyH-28" edge="1">
          <mxGeometry relative="1" as="geometry">
            <Array as="points">
              <mxPoint x="50" y="410" />
              <mxPoint x="50" y="410" />
            </Array>
            <mxPoint x="90" y="510" as="sourcePoint" />
            <mxPoint x="60" y="397" as="targetPoint" />
          </mxGeometry>
        </mxCell>
        <mxCell id="vSx6mATfrNihocP2TiyH-25" style="edgeStyle=orthogonalEdgeStyle;rounded=0;orthogonalLoop=1;jettySize=auto;html=1;fontFamily=Verdana;fontSize=10;endArrow=none;endFill=0;startArrow=open;startFill=0;dashed=1;strokeWidth=2;" parent="1" source="vSx6mATfrNihocP2TiyH-28" target="vSx6mATfrNihocP2TiyH-8" edge="1">
          <mxGeometry relative="1" as="geometry">
            <Array as="points">
              <mxPoint x="50" y="380" />
              <mxPoint x="50" y="380" />
            </Array>
            <mxPoint x="255" y="510" as="sourcePoint" />
            <mxPoint x="25" y="623" as="targetPoint" />
          </mxGeometry>
        </mxCell>
        <mxCell id="vSx6mATfrNihocP2TiyH-26" style="edgeStyle=orthogonalEdgeStyle;rounded=0;orthogonalLoop=1;jettySize=auto;html=1;fontFamily=Verdana;fontSize=10;endArrow=none;endFill=0;startArrow=open;startFill=0;dashed=1;strokeWidth=2;" parent="1" source="vSx6mATfrNihocP2TiyH-39" target="vSx6mATfrNihocP2TiyH-8" edge="1">
          <mxGeometry relative="1" as="geometry">
            <Array as="points">
              <mxPoint x="-140" y="570" />
            </Array>
            <mxPoint x="480" y="575" as="sourcePoint" />
            <mxPoint x="55" y="710" as="targetPoint" />
          </mxGeometry>
        </mxCell>
        <mxCell id="vSx6mATfrNihocP2TiyH-27" style="edgeStyle=orthogonalEdgeStyle;rounded=0;orthogonalLoop=1;jettySize=auto;html=1;fontFamily=Verdana;fontSize=10;endArrow=none;endFill=0;startArrow=open;startFill=0;dashed=1;strokeWidth=2;" parent="1" source="vSx6mATfrNihocP2TiyH-12" target="vSx6mATfrNihocP2TiyH-8" edge="1">
          <mxGeometry relative="1" as="geometry">
            <Array as="points">
              <mxPoint x="-175" y="230" />
              <mxPoint x="-175" y="230" />
            </Array>
            <mxPoint x="-180" y="230" as="sourcePoint" />
            <mxPoint x="-270" y="50" as="targetPoint" />
          </mxGeometry>
        </mxCell>
        <mxCell id="vSx6mATfrNihocP2TiyH-28" value="Emprendedor" style="swimlane;fontStyle=1;align=center;verticalAlign=top;childLayout=stackLayout;horizontal=1;startSize=26;horizontalStack=0;resizeParent=1;resizeParentMax=0;resizeLast=0;collapsible=1;marginBottom=0;hachureGap=4;pointerEvents=0;" parent="1" vertex="1">
          <mxGeometry x="85" y="315.5" width="340" height="112" as="geometry" />
        </mxCell>
        <mxCell id="vSx6mATfrNihocP2TiyH-35" value="" style="line;strokeWidth=1;fillColor=none;align=left;verticalAlign=middle;spacingTop=-1;spacingLeft=3;spacingRight=3;rotatable=0;labelPosition=right;points=[];portConstraint=eastwest;" parent="vSx6mATfrNihocP2TiyH-28" vertex="1">
          <mxGeometry y="26" width="340" height="8" as="geometry" />
        </mxCell>
        <mxCell id="OfuU6t0mR4pwS1KONoR3-96" value="+ PostularseAOferta(Oferta): void" style="text;html=1;strokeColor=none;fillColor=none;align=left;verticalAlign=top;spacingLeft=4;spacingRight=4;whiteSpace=wrap;overflow=hidden;rotatable=0;points=[[0,0.5],[1,0.5]];portConstraint=eastwest;" parent="vSx6mATfrNihocP2TiyH-28" vertex="1">
          <mxGeometry y="34" width="340" height="26" as="geometry" />
        </mxCell>
        <mxCell id="dwYmcji9vzRply6ok_k2-11" value="+ VerOfertas(List&amp;lt;string&amp;gt;, Buscador, ICanal): List&amp;lt;Oferta&amp;gt;" style="text;html=1;strokeColor=none;fillColor=none;align=left;verticalAlign=top;spacingLeft=4;spacingRight=4;whiteSpace=wrap;overflow=hidden;rotatable=0;points=[[0,0.5],[1,0.5]];portConstraint=eastwest;" parent="vSx6mATfrNihocP2TiyH-28" vertex="1">
          <mxGeometry y="60" width="340" height="26" as="geometry" />
        </mxCell>
        <mxCell id="OfuU6t0mR4pwS1KONoR3-95" value="+ VerOfertasPostuladas(Date, Date, ICanal): List&amp;lt;Oferta&amp;gt;" style="text;html=1;strokeColor=none;fillColor=none;align=left;verticalAlign=top;spacingLeft=4;spacingRight=4;whiteSpace=wrap;overflow=hidden;rotatable=0;points=[[0,0.5],[1,0.5]];portConstraint=eastwest;" parent="vSx6mATfrNihocP2TiyH-28" vertex="1">
          <mxGeometry y="86" width="340" height="26" as="geometry" />
        </mxCell>
        <mxCell id="vSx6mATfrNihocP2TiyH-39" value="Oferta" style="swimlane;fontStyle=1;align=center;verticalAlign=top;childLayout=stackLayout;horizontal=1;startSize=26;horizontalStack=0;resizeParent=1;resizeParentMax=0;resizeLast=0;collapsible=1;marginBottom=0;hachureGap=4;pointerEvents=0;" parent="1" vertex="1">
          <mxGeometry x="700" y="490" width="250" height="374" as="geometry" />
        </mxCell>
        <mxCell id="OfuU6t0mR4pwS1KONoR3-68" value="+ Id: string" style="text;strokeColor=none;fillColor=none;align=left;verticalAlign=top;spacingLeft=4;spacingRight=4;overflow=hidden;rotatable=0;points=[[0,0.5],[1,0.5]];portConstraint=eastwest;" parent="vSx6mATfrNihocP2TiyH-39" vertex="1">
          <mxGeometry y="26" width="250" height="26" as="geometry" />
        </mxCell>
        <mxCell id="OfuU6t0mR4pwS1KONoR3-48" value="+ FechaCreada: Date" style="text;html=1;strokeColor=none;fillColor=none;align=left;verticalAlign=top;spacingLeft=4;spacingRight=4;whiteSpace=wrap;overflow=hidden;rotatable=0;points=[[0,0.5],[1,0.5]];portConstraint=eastwest;" parent="vSx6mATfrNihocP2TiyH-39" vertex="1">
          <mxGeometry y="52" width="250" height="26" as="geometry" />
        </mxCell>
        <mxCell id="OfuU6t0mR4pwS1KONoR3-49" value="+ FechaCierre: Date" style="text;html=1;strokeColor=none;fillColor=none;align=left;verticalAlign=top;spacingLeft=4;spacingRight=4;whiteSpace=wrap;overflow=hidden;rotatable=0;points=[[0,0.5],[1,0.5]];portConstraint=eastwest;" parent="vSx6mATfrNihocP2TiyH-39" vertex="1">
          <mxGeometry y="78" width="250" height="26" as="geometry" />
        </mxCell>
        <mxCell id="OfuU6t0mR4pwS1KONoR3-47" value="+ Etiquetas: List&amp;lt;string&amp;gt;" style="text;html=1;strokeColor=none;fillColor=none;align=left;verticalAlign=top;spacingLeft=4;spacingRight=4;whiteSpace=wrap;overflow=hidden;rotatable=0;points=[[0,0.5],[1,0.5]];portConstraint=eastwest;" parent="vSx6mATfrNihocP2TiyH-39" vertex="1">
          <mxGeometry y="104" width="250" height="26" as="geometry" />
        </mxCell>
        <mxCell id="OfuU6t0mR4pwS1KONoR3-46" value="+ Estado: enum" style="text;html=1;strokeColor=none;fillColor=none;align=left;verticalAlign=top;spacingLeft=4;spacingRight=4;whiteSpace=wrap;overflow=hidden;rotatable=0;points=[[0,0.5],[1,0.5]];portConstraint=eastwest;" parent="vSx6mATfrNihocP2TiyH-39" vertex="1">
          <mxGeometry y="130" width="250" height="26" as="geometry" />
        </mxCell>
        <mxCell id="dwYmcji9vzRply6ok_k2-9" value="+ Habilitaciones: string" style="text;html=1;strokeColor=none;fillColor=none;align=left;verticalAlign=top;spacingLeft=4;spacingRight=4;whiteSpace=wrap;overflow=hidden;rotatable=0;points=[[0,0.5],[1,0.5]];portConstraint=eastwest;" parent="vSx6mATfrNihocP2TiyH-39" vertex="1">
          <mxGeometry y="156" width="250" height="26" as="geometry" />
        </mxCell>
        <mxCell id="OfuU6t0mR4pwS1KONoR3-43" value="+ ValorUSD: double" style="text;html=1;strokeColor=none;fillColor=none;align=left;verticalAlign=top;spacingLeft=4;spacingRight=4;whiteSpace=wrap;overflow=hidden;rotatable=0;points=[[0,0.5],[1,0.5]];portConstraint=eastwest;" parent="vSx6mATfrNihocP2TiyH-39" vertex="1">
          <mxGeometry y="182" width="250" height="28" as="geometry" />
        </mxCell>
        <mxCell id="OfuU6t0mR4pwS1KONoR3-42" value="+ ValorUYU: double" style="text;html=1;strokeColor=none;fillColor=none;align=left;verticalAlign=top;spacingLeft=4;spacingRight=4;whiteSpace=wrap;overflow=hidden;rotatable=0;points=[[0,0.5],[1,0.5]];portConstraint=eastwest;" parent="vSx6mATfrNihocP2TiyH-39" vertex="1">
          <mxGeometry y="210" width="250" height="26" as="geometry" />
        </mxCell>
        <mxCell id="OfuU6t0mR4pwS1KONoR3-39" value="+ Descripcion: string" style="text;strokeColor=none;fillColor=none;align=left;verticalAlign=top;spacingLeft=4;spacingRight=4;overflow=hidden;rotatable=0;points=[[0,0.5],[1,0.5]];portConstraint=eastwest;" parent="vSx6mATfrNihocP2TiyH-39" vertex="1">
          <mxGeometry y="236" width="250" height="26" as="geometry" />
        </mxCell>
        <mxCell id="OfuU6t0mR4pwS1KONoR3-38" value="+ Titulo: string" style="text;strokeColor=none;fillColor=none;align=left;verticalAlign=top;spacingLeft=4;spacingRight=4;overflow=hidden;rotatable=0;points=[[0,0.5],[1,0.5]];portConstraint=eastwest;" parent="vSx6mATfrNihocP2TiyH-39" vertex="1">
          <mxGeometry y="262" width="250" height="26" as="geometry" />
        </mxCell>
        <mxCell id="vSx6mATfrNihocP2TiyH-45" value="" style="line;strokeWidth=1;fillColor=none;align=left;verticalAlign=middle;spacingTop=-1;spacingLeft=3;spacingRight=3;rotatable=0;labelPosition=right;points=[];portConstraint=eastwest;" parent="vSx6mATfrNihocP2TiyH-39" vertex="1">
          <mxGeometry y="288" width="250" height="8" as="geometry" />
        </mxCell>
        <mxCell id="OfuU6t0mR4pwS1KONoR3-53" value="+ Redactar(): string" style="text;html=1;strokeColor=none;fillColor=none;align=left;verticalAlign=top;spacingLeft=4;spacingRight=4;whiteSpace=wrap;overflow=hidden;rotatable=0;points=[[0,0.5],[1,0.5]];portConstraint=eastwest;" parent="vSx6mATfrNihocP2TiyH-39" vertex="1">
          <mxGeometry y="296" width="250" height="26" as="geometry" />
        </mxCell>
        <mxCell id="OfuU6t0mR4pwS1KONoR3-54" value="+ RedactarResumida(): string" style="text;html=1;strokeColor=none;fillColor=none;align=left;verticalAlign=top;spacingLeft=4;spacingRight=4;whiteSpace=wrap;overflow=hidden;rotatable=0;points=[[0,0.5],[1,0.5]];portConstraint=eastwest;" parent="vSx6mATfrNihocP2TiyH-39" vertex="1">
          <mxGeometry y="322" width="250" height="26" as="geometry" />
        </mxCell>
        <mxCell id="vSx6mATfrNihocP2TiyH-117" value="+ RedactarPostulados(): string" style="text;html=1;strokeColor=none;fillColor=none;align=left;verticalAlign=top;spacingLeft=4;spacingRight=4;whiteSpace=wrap;overflow=hidden;rotatable=0;points=[[0,0.5],[1,0.5]];portConstraint=eastwest;" parent="vSx6mATfrNihocP2TiyH-39" vertex="1">
          <mxGeometry y="348" width="250" height="26" as="geometry" />
        </mxCell>
        <mxCell id="vSx6mATfrNihocP2TiyH-48" style="edgeStyle=orthogonalEdgeStyle;rounded=0;orthogonalLoop=1;jettySize=auto;html=1;fontFamily=Verdana;fontSize=10;strokeWidth=2;startArrow=diamondThin;startFill=0;startSize=15;" parent="1" source="vSx6mATfrNihocP2TiyH-39" target="vSx6mATfrNihocP2TiyH-28" edge="1">
          <mxGeometry relative="1" as="geometry">
            <Array as="points">
              <mxPoint x="730" y="410" />
            </Array>
            <mxPoint x="660" y="360" as="sourcePoint" />
            <mxPoint x="660" y="286" as="targetPoint" />
          </mxGeometry>
        </mxCell>
        <mxCell id="vSx6mATfrNihocP2TiyH-67" value="Producto" style="swimlane;fontStyle=1;align=center;verticalAlign=top;childLayout=stackLayout;horizontal=1;startSize=26;horizontalStack=0;resizeParent=1;resizeParentMax=0;resizeLast=0;collapsible=1;marginBottom=0;hachureGap=4;pointerEvents=0;" parent="1" vertex="1">
          <mxGeometry x="1136.25" y="565.5" width="177.5" height="112" as="geometry" />
        </mxCell>
        <mxCell id="OfuU6t0mR4pwS1KONoR3-25" value="+ CantidadEnUnidad: double" style="text;strokeColor=none;fillColor=none;align=left;verticalAlign=top;spacingLeft=4;spacingRight=4;overflow=hidden;rotatable=0;points=[[0,0.5],[1,0.5]];portConstraint=eastwest;" parent="vSx6mATfrNihocP2TiyH-67" vertex="1">
          <mxGeometry y="26" width="177.5" height="26" as="geometry" />
        </mxCell>
        <mxCell id="OfuU6t0mR4pwS1KONoR3-31" value="+ ValorUYU: double" style="text;html=1;strokeColor=none;fillColor=none;align=left;verticalAlign=top;spacingLeft=4;spacingRight=4;whiteSpace=wrap;overflow=hidden;rotatable=0;points=[[0,0.5],[1,0.5]];portConstraint=eastwest;" parent="vSx6mATfrNihocP2TiyH-67" vertex="1">
          <mxGeometry y="52" width="177.5" height="26" as="geometry" />
        </mxCell>
        <mxCell id="OfuU6t0mR4pwS1KONoR3-32" value="+ ValorUSD: double" style="text;html=1;strokeColor=none;fillColor=none;align=left;verticalAlign=top;spacingLeft=4;spacingRight=4;whiteSpace=wrap;overflow=hidden;rotatable=0;points=[[0,0.5],[1,0.5]];portConstraint=eastwest;" parent="vSx6mATfrNihocP2TiyH-67" vertex="1">
          <mxGeometry y="78" width="177.5" height="26" as="geometry" />
        </mxCell>
        <mxCell id="vSx6mATfrNihocP2TiyH-70" value="" style="line;strokeWidth=1;fillColor=none;align=left;verticalAlign=middle;spacingTop=-1;spacingLeft=3;spacingRight=3;rotatable=0;labelPosition=right;points=[];portConstraint=eastwest;" parent="vSx6mATfrNihocP2TiyH-67" vertex="1">
          <mxGeometry y="104" width="177.5" height="8" as="geometry" />
        </mxCell>
        <mxCell id="vSx6mATfrNihocP2TiyH-73" style="edgeStyle=orthogonalEdgeStyle;rounded=0;orthogonalLoop=1;jettySize=auto;html=1;fontFamily=Verdana;fontSize=10;strokeWidth=2;startArrow=diamondThin;startFill=1;endSize=6;startSize=15;" parent="1" source="vSx6mATfrNihocP2TiyH-39" target="vSx6mATfrNihocP2TiyH-67" edge="1">
          <mxGeometry relative="1" as="geometry">
            <Array as="points">
              <mxPoint x="1080" y="630" />
              <mxPoint x="1080" y="630" />
            </Array>
            <mxPoint x="705" y="470" as="sourcePoint" />
            <mxPoint x="705" y="396" as="targetPoint" />
          </mxGeometry>
        </mxCell>
        <mxCell id="vSx6mATfrNihocP2TiyH-86" value="Material" style="swimlane;fontStyle=1;align=center;verticalAlign=top;childLayout=stackLayout;horizontal=1;startSize=26;horizontalStack=0;resizeParent=1;resizeParentMax=0;resizeLast=0;collapsible=1;marginBottom=0;hachureGap=4;pointerEvents=0;" parent="1" vertex="1">
          <mxGeometry x="1142.5" y="758.5" width="165" height="112" as="geometry" />
        </mxCell>
        <mxCell id="17acba5748e5396b-26" value="+ UnidadEstandar: string" style="text;html=1;strokeColor=none;fillColor=none;align=left;verticalAlign=top;spacingLeft=4;spacingRight=4;whiteSpace=wrap;overflow=hidden;rotatable=0;points=[[0,0.5],[1,0.5]];portConstraint=eastwest;" parent="vSx6mATfrNihocP2TiyH-86" vertex="1">
          <mxGeometry y="26" width="165" height="26" as="geometry" />
        </mxCell>
        <mxCell id="17acba5748e5396b-24" value="+ Categorias: List&amp;lt;string&amp;gt;" style="text;html=1;strokeColor=none;fillColor=none;align=left;verticalAlign=top;spacingLeft=4;spacingRight=4;whiteSpace=wrap;overflow=hidden;rotatable=0;points=[[0,0.5],[1,0.5]];portConstraint=eastwest;" parent="vSx6mATfrNihocP2TiyH-86" vertex="1">
          <mxGeometry y="52" width="165" height="26" as="geometry" />
        </mxCell>
        <mxCell id="17acba5748e5396b-21" value="+ Nombre: string" style="text;html=1;strokeColor=none;fillColor=none;align=left;verticalAlign=top;spacingLeft=4;spacingRight=4;whiteSpace=wrap;overflow=hidden;rotatable=0;points=[[0,0.5],[1,0.5]];portConstraint=eastwest;" parent="vSx6mATfrNihocP2TiyH-86" vertex="1">
          <mxGeometry y="78" width="165" height="26" as="geometry" />
        </mxCell>
        <mxCell id="vSx6mATfrNihocP2TiyH-92" value="" style="line;strokeWidth=1;fillColor=none;align=left;verticalAlign=middle;spacingTop=-1;spacingLeft=3;spacingRight=3;rotatable=0;labelPosition=right;points=[];portConstraint=eastwest;" parent="vSx6mATfrNihocP2TiyH-86" vertex="1">
          <mxGeometry y="104" width="165" height="8" as="geometry" />
        </mxCell>
        <mxCell id="vSx6mATfrNihocP2TiyH-93" style="edgeStyle=orthogonalEdgeStyle;rounded=0;orthogonalLoop=1;jettySize=auto;html=1;fontFamily=Verdana;fontSize=10;strokeWidth=2;endArrow=open;endFill=0;startArrow=diamondThin;startFill=1;startSize=15;" parent="1" source="vSx6mATfrNihocP2TiyH-67" target="vSx6mATfrNihocP2TiyH-86" edge="1">
          <mxGeometry relative="1" as="geometry">
            <Array as="points">
              <mxPoint x="1175" y="661.5" />
            </Array>
            <mxPoint x="1015" y="654.5" as="sourcePoint" />
            <mxPoint x="1285" y="359.5" as="targetPoint" />
          </mxGeometry>
        </mxCell>
        <mxCell id="vSx6mATfrNihocP2TiyH-94" value="Ubicacion" style="swimlane;fontStyle=1;align=center;verticalAlign=top;childLayout=stackLayout;horizontal=1;startSize=26;horizontalStack=0;resizeParent=1;resizeParentMax=0;resizeLast=0;collapsible=1;marginBottom=0;hachureGap=4;pointerEvents=0;" parent="1" vertex="1">
          <mxGeometry x="1142.5" y="289.5" width="165" height="190" as="geometry" />
        </mxCell>
        <mxCell id="OfuU6t0mR4pwS1KONoR3-12" value="+ Departamento: string" style="text;html=1;strokeColor=none;fillColor=none;align=left;verticalAlign=top;spacingLeft=4;spacingRight=4;whiteSpace=wrap;overflow=hidden;rotatable=0;points=[[0,0.5],[1,0.5]];portConstraint=eastwest;" parent="vSx6mATfrNihocP2TiyH-94" vertex="1">
          <mxGeometry y="26" width="165" height="26" as="geometry" />
        </mxCell>
        <mxCell id="OfuU6t0mR4pwS1KONoR3-11" value="+ Ciudad: string" style="text;html=1;strokeColor=none;fillColor=none;align=left;verticalAlign=top;spacingLeft=4;spacingRight=4;whiteSpace=wrap;overflow=hidden;rotatable=0;points=[[0,0.5],[1,0.5]];portConstraint=eastwest;" parent="vSx6mATfrNihocP2TiyH-94" vertex="1">
          <mxGeometry y="52" width="165" height="26" as="geometry" />
        </mxCell>
        <mxCell id="OfuU6t0mR4pwS1KONoR3-13" value="+ NumPuerta: string" style="text;html=1;strokeColor=none;fillColor=none;align=left;verticalAlign=top;spacingLeft=4;spacingRight=4;whiteSpace=wrap;overflow=hidden;rotatable=0;points=[[0,0.5],[1,0.5]];portConstraint=eastwest;" parent="vSx6mATfrNihocP2TiyH-94" vertex="1">
          <mxGeometry y="78" width="165" height="26" as="geometry" />
        </mxCell>
        <mxCell id="OfuU6t0mR4pwS1KONoR3-10" value="+ Esquina: string" style="text;html=1;strokeColor=none;fillColor=none;align=left;verticalAlign=top;spacingLeft=4;spacingRight=4;whiteSpace=wrap;overflow=hidden;rotatable=0;points=[[0,0.5],[1,0.5]];portConstraint=eastwest;" parent="vSx6mATfrNihocP2TiyH-94" vertex="1">
          <mxGeometry y="104" width="165" height="26" as="geometry" />
        </mxCell>
        <mxCell id="OfuU6t0mR4pwS1KONoR3-9" value="+ Calle: string" style="text;html=1;strokeColor=none;fillColor=none;align=left;verticalAlign=top;spacingLeft=4;spacingRight=4;whiteSpace=wrap;overflow=hidden;rotatable=0;points=[[0,0.5],[1,0.5]];portConstraint=eastwest;" parent="vSx6mATfrNihocP2TiyH-94" vertex="1">
          <mxGeometry y="130" width="165" height="26" as="geometry" />
        </mxCell>
        <mxCell id="vSx6mATfrNihocP2TiyH-100" value="" style="line;strokeWidth=1;fillColor=none;align=left;verticalAlign=middle;spacingTop=-1;spacingLeft=3;spacingRight=3;rotatable=0;labelPosition=right;points=[];portConstraint=eastwest;" parent="vSx6mATfrNihocP2TiyH-94" vertex="1">
          <mxGeometry y="156" width="165" height="8" as="geometry" />
        </mxCell>
        <mxCell id="vSx6mATfrNihocP2TiyH-101" value="+ Redactar(): string" style="text;html=1;strokeColor=none;fillColor=none;align=left;verticalAlign=top;spacingLeft=4;spacingRight=4;whiteSpace=wrap;overflow=hidden;rotatable=0;points=[[0,0.5],[1,0.5]];portConstraint=eastwest;" parent="vSx6mATfrNihocP2TiyH-94" vertex="1">
          <mxGeometry y="164" width="165" height="26" as="geometry" />
        </mxCell>
        <mxCell id="vSx6mATfrNihocP2TiyH-102" style="edgeStyle=orthogonalEdgeStyle;rounded=0;orthogonalLoop=1;jettySize=auto;html=1;fontFamily=Verdana;fontSize=10;strokeWidth=2;startArrow=diamondThin;startFill=1;startSize=15;endArrow=open;endFill=0;" parent="1" source="vSx6mATfrNihocP2TiyH-67" target="vSx6mATfrNihocP2TiyH-94" edge="1">
          <mxGeometry relative="1" as="geometry">
            <Array as="points">
              <mxPoint x="1225" y="539.5" />
              <mxPoint x="1225" y="539.5" />
            </Array>
            <mxPoint x="1255" y="513.5" as="sourcePoint" />
            <mxPoint x="1255" y="572.5" as="targetPoint" />
          </mxGeometry>
        </mxCell>
        <mxCell id="vSx6mATfrNihocP2TiyH-105" value="&lt;&lt;Interface&gt;&gt;&#xa;IPersistencia" style="swimlane;fontStyle=1;align=center;verticalAlign=top;childLayout=stackLayout;horizontal=1;startSize=40;horizontalStack=0;resizeParent=1;resizeParentMax=0;resizeLast=0;collapsible=1;marginBottom=0;hachureGap=4;pointerEvents=0;" parent="1" vertex="1">
          <mxGeometry x="170" width="220" height="100" as="geometry" />
        </mxCell>
        <mxCell id="vSx6mATfrNihocP2TiyH-111" value="" style="line;strokeWidth=1;fillColor=none;align=left;verticalAlign=middle;spacingTop=-1;spacingLeft=3;spacingRight=3;rotatable=0;labelPosition=right;points=[];portConstraint=eastwest;" parent="vSx6mATfrNihocP2TiyH-105" vertex="1">
          <mxGeometry y="40" width="220" height="8" as="geometry" />
        </mxCell>
        <mxCell id="vSx6mATfrNihocP2TiyH-113" value="+ EscribirArchivo(string, string): void" style="text;html=1;strokeColor=none;fillColor=none;align=left;verticalAlign=top;spacingLeft=4;spacingRight=4;whiteSpace=wrap;overflow=hidden;rotatable=0;points=[[0,0.5],[1,0.5]];portConstraint=eastwest;" parent="vSx6mATfrNihocP2TiyH-105" vertex="1">
          <mxGeometry y="48" width="220" height="26" as="geometry" />
        </mxCell>
        <mxCell id="vSx6mATfrNihocP2TiyH-112" value="+ LeerArchivo(string): string" style="text;html=1;strokeColor=none;fillColor=none;align=left;verticalAlign=top;spacingLeft=4;spacingRight=4;whiteSpace=wrap;overflow=hidden;rotatable=0;points=[[0,0.5],[1,0.5]];portConstraint=eastwest;" parent="vSx6mATfrNihocP2TiyH-105" vertex="1">
          <mxGeometry y="74" width="220" height="26" as="geometry" />
        </mxCell>
        <mxCell id="vSx6mATfrNihocP2TiyH-114" style="edgeStyle=orthogonalEdgeStyle;rounded=0;orthogonalLoop=1;jettySize=auto;html=1;fontFamily=Verdana;fontSize=10;endArrow=none;endFill=0;startArrow=open;startFill=0;dashed=1;strokeWidth=2;" parent="1" source="vSx6mATfrNihocP2TiyH-105" target="vSx6mATfrNihocP2TiyH-12" edge="1">
          <mxGeometry relative="1" as="geometry">
            <mxPoint x="630" y="130" as="sourcePoint" />
            <mxPoint x="110" y="130" as="targetPoint" />
            <Array as="points">
              <mxPoint x="300" y="50" />
              <mxPoint x="-70" y="50" />
            </Array>
          </mxGeometry>
        </mxCell>
        <mxCell id="vSx6mATfrNihocP2TiyH-115" style="edgeStyle=orthogonalEdgeStyle;rounded=0;orthogonalLoop=1;jettySize=auto;html=1;fontFamily=Verdana;fontSize=10;endArrow=none;endFill=0;startArrow=open;startFill=0;dashed=1;strokeWidth=2;" parent="1" source="vSx6mATfrNihocP2TiyH-105" target="-uJzJ6gPzwEDHYAXKso4-2" edge="1">
          <mxGeometry relative="1" as="geometry">
            <mxPoint x="240" y="60.000000000000114" as="sourcePoint" />
            <mxPoint x="-60" y="79.99999999999989" as="targetPoint" />
            <Array as="points">
              <mxPoint x="520" y="40" />
              <mxPoint x="520" y="40" />
            </Array>
          </mxGeometry>
        </mxCell>
        <mxCell id="PKBnGowhQyHv3xgLULpX-1" value="1" style="text;html=1;strokeColor=none;fillColor=none;align=center;verticalAlign=middle;whiteSpace=wrap;rounded=0;hachureGap=4;pointerEvents=0;fontSize=14;" parent="1" vertex="1">
          <mxGeometry x="855.06" y="382.5" width="20" height="25" as="geometry" />
        </mxCell>
        <mxCell id="PKBnGowhQyHv3xgLULpX-2" value="0...*" style="text;html=1;strokeColor=none;fillColor=none;align=center;verticalAlign=middle;whiteSpace=wrap;rounded=0;hachureGap=4;pointerEvents=0;fontSize=14;" parent="1" vertex="1">
          <mxGeometry x="855.06" y="470" width="30" height="20" as="geometry" />
        </mxCell>
        <mxCell id="PKBnGowhQyHv3xgLULpX-3" value="1" style="text;html=1;strokeColor=none;fillColor=none;align=center;verticalAlign=middle;whiteSpace=wrap;rounded=0;hachureGap=4;pointerEvents=0;fontSize=14;" parent="1" vertex="1">
          <mxGeometry x="900" width="20" height="25" as="geometry" />
        </mxCell>
        <mxCell id="PKBnGowhQyHv3xgLULpX-4" value="0...*" style="text;html=1;strokeColor=none;fillColor=none;align=center;verticalAlign=middle;whiteSpace=wrap;rounded=0;hachureGap=4;pointerEvents=0;fontSize=14;" parent="1" vertex="1">
          <mxGeometry x="780" width="30" height="25" as="geometry" />
        </mxCell>
        <mxCell id="PKBnGowhQyHv3xgLULpX-5" value="1" style="text;html=1;strokeColor=none;fillColor=none;align=center;verticalAlign=middle;whiteSpace=wrap;rounded=0;hachureGap=4;pointerEvents=0;fontSize=14;" parent="1" vertex="1">
          <mxGeometry x="1235" y="479.5" width="20" height="25" as="geometry" />
        </mxCell>
        <mxCell id="PKBnGowhQyHv3xgLULpX-6" value="0...*" style="text;html=1;strokeColor=none;fillColor=none;align=center;verticalAlign=middle;whiteSpace=wrap;rounded=0;hachureGap=4;pointerEvents=0;fontSize=14;" parent="1" vertex="1">
          <mxGeometry x="1235" y="537.5" width="30" height="25" as="geometry" />
        </mxCell>
        <mxCell id="PKBnGowhQyHv3xgLULpX-7" value="0...*" style="text;html=1;strokeColor=none;fillColor=none;align=center;verticalAlign=middle;whiteSpace=wrap;rounded=0;hachureGap=4;pointerEvents=0;fontSize=14;" parent="1" vertex="1">
          <mxGeometry x="1235" y="677.5" width="30" height="25" as="geometry" />
        </mxCell>
        <mxCell id="PKBnGowhQyHv3xgLULpX-8" value="1" style="text;html=1;strokeColor=none;fillColor=none;align=center;verticalAlign=middle;whiteSpace=wrap;rounded=0;hachureGap=4;pointerEvents=0;fontSize=14;" parent="1" vertex="1">
          <mxGeometry x="1235" y="733.5" width="20" height="25" as="geometry" />
        </mxCell>
        <mxCell id="PKBnGowhQyHv3xgLULpX-10" value="0...*" style="text;html=1;strokeColor=none;fillColor=none;align=center;verticalAlign=middle;whiteSpace=wrap;rounded=0;hachureGap=4;pointerEvents=0;fontSize=14;" parent="1" vertex="1">
          <mxGeometry x="1106.25" y="600" width="30" height="25" as="geometry" />
        </mxCell>
        <mxCell id="PKBnGowhQyHv3xgLULpX-11" value="1" style="text;html=1;strokeColor=none;fillColor=none;align=center;verticalAlign=middle;whiteSpace=wrap;rounded=0;hachureGap=4;pointerEvents=0;fontSize=14;" parent="1" vertex="1">
          <mxGeometry x="950" y="600" width="20" height="25" as="geometry" />
        </mxCell>
        <mxCell id="PKBnGowhQyHv3xgLULpX-12" value="1" style="text;html=1;strokeColor=none;fillColor=none;align=center;verticalAlign=middle;whiteSpace=wrap;rounded=0;hachureGap=4;pointerEvents=0;fontSize=14;" parent="1" vertex="1">
          <mxGeometry x="100" y="110" width="20" height="25" as="geometry" />
        </mxCell>
        <mxCell id="PKBnGowhQyHv3xgLULpX-14" value="0...*" style="text;html=1;strokeColor=none;fillColor=none;align=center;verticalAlign=middle;whiteSpace=wrap;rounded=0;hachureGap=4;pointerEvents=0;fontSize=14;" parent="1" vertex="1">
          <mxGeometry x="640" y="295.5" width="30" height="20" as="geometry" />
        </mxCell>
        <mxCell id="PKBnGowhQyHv3xgLULpX-15" value="1" style="text;html=1;strokeColor=none;fillColor=none;align=center;verticalAlign=middle;whiteSpace=wrap;rounded=0;hachureGap=4;pointerEvents=0;fontSize=14;" parent="1" vertex="1">
          <mxGeometry x="50" y="156" width="20" height="25" as="geometry" />
        </mxCell>
        <mxCell id="PKBnGowhQyHv3xgLULpX-16" value="0...*" style="text;html=1;strokeColor=none;fillColor=none;align=center;verticalAlign=middle;whiteSpace=wrap;rounded=0;hachureGap=4;pointerEvents=0;fontSize=14;" parent="1" vertex="1">
          <mxGeometry x="170" y="295.5" width="30" height="20" as="geometry" />
        </mxCell>
        <mxCell id="PKBnGowhQyHv3xgLULpX-17" style="edgeStyle=orthogonalEdgeStyle;rounded=0;orthogonalLoop=1;jettySize=auto;html=1;fontFamily=Verdana;fontSize=10;strokeWidth=2;startArrow=diamondThin;startFill=0;startSize=15;" parent="1" source="vSx6mATfrNihocP2TiyH-28" target="vSx6mATfrNihocP2TiyH-39" edge="1">
          <mxGeometry relative="1" as="geometry">
            <Array as="points">
              <mxPoint x="360" y="520" />
            </Array>
            <mxPoint x="575" y="418" as="sourcePoint" />
            <mxPoint x="435" y="418" as="targetPoint" />
          </mxGeometry>
        </mxCell>
        <mxCell id="dwYmcji9vzRply6ok_k2-4" value="0...*" style="text;html=1;strokeColor=none;fillColor=none;align=center;verticalAlign=middle;whiteSpace=wrap;rounded=0;hachureGap=4;pointerEvents=0;fontSize=14;" parent="1" vertex="1">
          <mxGeometry x="370" y="430" width="30" height="20" as="geometry" />
        </mxCell>
        <mxCell id="dwYmcji9vzRply6ok_k2-6" value="0...*" style="text;html=1;strokeColor=none;fillColor=none;align=center;verticalAlign=middle;whiteSpace=wrap;rounded=0;hachureGap=4;pointerEvents=0;fontSize=14;" parent="1" vertex="1">
          <mxGeometry x="670" y="657.5" width="30" height="20" as="geometry" />
        </mxCell>
        <mxCell id="dwYmcji9vzRply6ok_k2-7" value="0...*" style="text;html=1;strokeColor=none;fillColor=none;align=center;verticalAlign=middle;whiteSpace=wrap;rounded=0;hachureGap=4;pointerEvents=0;fontSize=14;" parent="1" vertex="1">
          <mxGeometry x="665" y="495" width="30" height="20" as="geometry" />
        </mxCell>
        <mxCell id="dwYmcji9vzRply6ok_k2-8" value="0...*" style="text;html=1;strokeColor=none;fillColor=none;align=center;verticalAlign=middle;whiteSpace=wrap;rounded=0;hachureGap=4;pointerEvents=0;fontSize=14;" parent="1" vertex="1">
          <mxGeometry x="425" y="380" width="30" height="20" as="geometry" />
        </mxCell>
        <mxCell id="mH8yagIn12Yi0sGWKRNc-1" value="&lt;&lt;Interface&gt;&gt;&#xa;ICanal" style="swimlane;fontStyle=1;align=center;verticalAlign=top;childLayout=stackLayout;horizontal=1;startSize=40;horizontalStack=0;resizeParent=1;resizeParentMax=0;resizeLast=0;collapsible=1;marginBottom=0;hachureGap=4;pointerEvents=0;" parent="1" vertex="1">
          <mxGeometry x="200" y="-130" width="160" height="100" as="geometry" />
        </mxCell>
        <mxCell id="mH8yagIn12Yi0sGWKRNc-2" value="" style="line;strokeWidth=1;fillColor=none;align=left;verticalAlign=middle;spacingTop=-1;spacingLeft=3;spacingRight=3;rotatable=0;labelPosition=right;points=[];portConstraint=eastwest;" parent="mH8yagIn12Yi0sGWKRNc-1" vertex="1">
          <mxGeometry y="40" width="160" height="8" as="geometry" />
        </mxCell>
        <mxCell id="vSx6mATfrNihocP2TiyH-75" value="+ EnviarMensaje(): void" style="text;strokeColor=none;fillColor=none;align=left;verticalAlign=top;spacingLeft=4;spacingRight=4;overflow=hidden;rotatable=0;points=[[0,0.5],[1,0.5]];portConstraint=eastwest;" parent="mH8yagIn12Yi0sGWKRNc-1" vertex="1">
          <mxGeometry y="48" width="160" height="26" as="geometry" />
        </mxCell>
        <mxCell id="vSx6mATfrNihocP2TiyH-76" value="+ RecibirMensaje(): string" style="text;strokeColor=none;fillColor=none;align=left;verticalAlign=top;spacingLeft=4;spacingRight=4;overflow=hidden;rotatable=0;points=[[0,0.5],[1,0.5]];portConstraint=eastwest;" parent="mH8yagIn12Yi0sGWKRNc-1" vertex="1">
          <mxGeometry y="74" width="160" height="26" as="geometry" />
        </mxCell>
        <mxCell id="FSzWA0WFF1zu2NpBAVLJ-1" value="Rubro" style="swimlane;fontStyle=1;align=center;verticalAlign=top;childLayout=stackLayout;horizontal=1;startSize=26;horizontalStack=0;resizeParent=1;resizeParentMax=0;resizeLast=0;collapsible=1;marginBottom=0;hachureGap=4;pointerEvents=0;" parent="1" vertex="1">
          <mxGeometry x="920" width="120" height="60" as="geometry" />
        </mxCell>
        <mxCell id="FSzWA0WFF1zu2NpBAVLJ-2" value="+ Nombre: string" style="text;html=1;strokeColor=none;fillColor=none;align=left;verticalAlign=top;spacingLeft=4;spacingRight=4;whiteSpace=wrap;overflow=hidden;rotatable=0;points=[[0,0.5],[1,0.5]];portConstraint=eastwest;" parent="FSzWA0WFF1zu2NpBAVLJ-1" vertex="1">
          <mxGeometry y="26" width="120" height="26" as="geometry" />
        </mxCell>
        <mxCell id="FSzWA0WFF1zu2NpBAVLJ-7" value="" style="line;strokeWidth=1;fillColor=none;align=left;verticalAlign=middle;spacingTop=-1;spacingLeft=3;spacingRight=3;rotatable=0;labelPosition=right;points=[];portConstraint=eastwest;" parent="FSzWA0WFF1zu2NpBAVLJ-1" vertex="1">
          <mxGeometry y="52" width="120" height="8" as="geometry" />
        </mxCell>
        <mxCell id="FSzWA0WFF1zu2NpBAVLJ-8" value="Habilitacion" style="swimlane;fontStyle=1;align=center;verticalAlign=top;childLayout=stackLayout;horizontal=1;startSize=26;horizontalStack=0;resizeParent=1;resizeParentMax=0;resizeLast=0;collapsible=1;marginBottom=0;hachureGap=4;pointerEvents=0;" parent="1" vertex="1">
          <mxGeometry x="171.25" y="610" width="167.5" height="164" as="geometry" />
        </mxCell>
        <mxCell id="FSzWA0WFF1zu2NpBAVLJ-9" value="+ Descripcion: string" style="text;html=1;strokeColor=none;fillColor=none;align=left;verticalAlign=top;spacingLeft=4;spacingRight=4;whiteSpace=wrap;overflow=hidden;rotatable=0;points=[[0,0.5],[1,0.5]];portConstraint=eastwest;" parent="FSzWA0WFF1zu2NpBAVLJ-8" vertex="1">
          <mxGeometry y="26" width="167.5" height="26" as="geometry" />
        </mxCell>
        <mxCell id="FSzWA0WFF1zu2NpBAVLJ-12" value="+ Expedidor: string" style="text;html=1;strokeColor=none;fillColor=none;align=left;verticalAlign=top;spacingLeft=4;spacingRight=4;whiteSpace=wrap;overflow=hidden;rotatable=0;points=[[0,0.5],[1,0.5]];portConstraint=eastwest;" parent="FSzWA0WFF1zu2NpBAVLJ-8" vertex="1">
          <mxGeometry y="52" width="167.5" height="26" as="geometry" />
        </mxCell>
        <mxCell id="FSzWA0WFF1zu2NpBAVLJ-14" value="+ FechaTramite: Date" style="text;html=1;strokeColor=none;fillColor=none;align=left;verticalAlign=top;spacingLeft=4;spacingRight=4;whiteSpace=wrap;overflow=hidden;rotatable=0;points=[[0,0.5],[1,0.5]];portConstraint=eastwest;" parent="FSzWA0WFF1zu2NpBAVLJ-8" vertex="1">
          <mxGeometry y="78" width="167.5" height="26" as="geometry" />
        </mxCell>
        <mxCell id="FSzWA0WFF1zu2NpBAVLJ-13" value="+ FechaVencimiento: Date" style="text;html=1;strokeColor=none;fillColor=none;align=left;verticalAlign=top;spacingLeft=4;spacingRight=4;whiteSpace=wrap;overflow=hidden;rotatable=0;points=[[0,0.5],[1,0.5]];portConstraint=eastwest;" parent="FSzWA0WFF1zu2NpBAVLJ-8" vertex="1">
          <mxGeometry y="104" width="167.5" height="26" as="geometry" />
        </mxCell>
        <mxCell id="FSzWA0WFF1zu2NpBAVLJ-11" value="+ Vigencia: boolean" style="text;html=1;strokeColor=none;fillColor=none;align=left;verticalAlign=top;spacingLeft=4;spacingRight=4;whiteSpace=wrap;overflow=hidden;rotatable=0;points=[[0,0.5],[1,0.5]];portConstraint=eastwest;" parent="FSzWA0WFF1zu2NpBAVLJ-8" vertex="1">
          <mxGeometry y="130" width="167.5" height="26" as="geometry" />
        </mxCell>
        <mxCell id="FSzWA0WFF1zu2NpBAVLJ-10" value="" style="line;strokeWidth=1;fillColor=none;align=left;verticalAlign=middle;spacingTop=-1;spacingLeft=3;spacingRight=3;rotatable=0;labelPosition=right;points=[];portConstraint=eastwest;" parent="FSzWA0WFF1zu2NpBAVLJ-8" vertex="1">
          <mxGeometry y="156" width="167.5" height="8" as="geometry" />
        </mxCell>
        <mxCell id="FSzWA0WFF1zu2NpBAVLJ-16" value="0...*" style="text;html=1;strokeColor=none;fillColor=none;align=center;verticalAlign=middle;whiteSpace=wrap;rounded=0;hachureGap=4;pointerEvents=0;fontSize=14;" parent="1" vertex="1">
          <mxGeometry x="265" y="430" width="30" height="20" as="geometry" />
        </mxCell>
        <mxCell id="FSzWA0WFF1zu2NpBAVLJ-17" value="0...*" style="text;html=1;strokeColor=none;fillColor=none;align=center;verticalAlign=middle;whiteSpace=wrap;rounded=0;hachureGap=4;pointerEvents=0;fontSize=14;" parent="1" vertex="1">
          <mxGeometry x="265" y="590" width="30" height="20" as="geometry" />
        </mxCell>
        <mxCell id="FSzWA0WFF1zu2NpBAVLJ-18" style="edgeStyle=orthogonalEdgeStyle;rounded=0;orthogonalLoop=1;jettySize=auto;html=1;fontFamily=Verdana;fontSize=10;strokeWidth=2;startArrow=diamondThin;startFill=0;startSize=15;" parent="1" source="vSx6mATfrNihocP2TiyH-28" target="FSzWA0WFF1zu2NpBAVLJ-8" edge="1">
          <mxGeometry relative="1" as="geometry">
            <Array as="points" />
            <mxPoint x="410" y="599.5" as="sourcePoint" />
            <mxPoint x="550" y="599.5" as="targetPoint" />
          </mxGeometry>
        </mxCell>
        <mxCell id="FSzWA0WFF1zu2NpBAVLJ-19" style="edgeStyle=orthogonalEdgeStyle;rounded=0;orthogonalLoop=1;jettySize=auto;html=1;fontFamily=Verdana;fontSize=10;strokeWidth=2;startArrow=diamondThin;startFill=0;startSize=15;" parent="1" source="vSx6mATfrNihocP2TiyH-39" target="FSzWA0WFF1zu2NpBAVLJ-8" edge="1">
          <mxGeometry relative="1" as="geometry">
            <Array as="points">
              <mxPoint x="530" y="692" />
              <mxPoint x="530" y="692" />
            </Array>
            <mxPoint x="265" y="552" as="sourcePoint" />
            <mxPoint x="265" y="620" as="targetPoint" />
          </mxGeometry>
        </mxCell>
        <mxCell id="FSzWA0WFF1zu2NpBAVLJ-28" value="0...*" style="text;html=1;strokeColor=none;fillColor=none;align=center;verticalAlign=middle;whiteSpace=wrap;rounded=0;hachureGap=4;pointerEvents=0;fontSize=14;" parent="1" vertex="1">
          <mxGeometry x="338.75" y="659.5" width="30" height="20" as="geometry" />
        </mxCell>
        <mxCell id="UnlmN7O8DrxsR0FGW14c-6" style="edgeStyle=orthogonalEdgeStyle;rounded=0;orthogonalLoop=1;jettySize=auto;html=1;fontFamily=Verdana;fontSize=10;strokeWidth=2;startArrow=diamondThin;startFill=0;startSize=15;" parent="1" source="vSx6mATfrNihocP2TiyH-39" target="vSx6mATfrNihocP2TiyH-15" edge="1">
          <mxGeometry relative="1" as="geometry">
            <Array as="points">
              <mxPoint x="800" y="450" />
              <mxPoint x="800" y="450" />
            </Array>
            <mxPoint x="1045" y="420" as="sourcePoint" />
            <mxPoint x="840" y="170" as="targetPoint" />
          </mxGeometry>
        </mxCell>
        <mxCell id="UnlmN7O8DrxsR0FGW14c-7" value="1" style="text;html=1;strokeColor=none;fillColor=none;align=center;verticalAlign=middle;whiteSpace=wrap;rounded=0;hachureGap=4;pointerEvents=0;fontSize=14;" parent="1" vertex="1">
          <mxGeometry x="807" y="382.5" width="20" height="25" as="geometry" />
        </mxCell>
        <mxCell id="-uJzJ6gPzwEDHYAXKso4-2" value="Usuario" style="swimlane;fontStyle=1;align=center;verticalAlign=top;childLayout=stackLayout;horizontal=1;startSize=26;horizontalStack=0;resizeParent=1;resizeParentMax=0;resizeLast=0;collapsible=1;marginBottom=0;hachureGap=4;pointerEvents=0;" parent="1" vertex="1">
          <mxGeometry x="440" y="7" width="340" height="86" as="geometry" />
        </mxCell>
        <mxCell id="-uJzJ6gPzwEDHYAXKso4-3" value="+ Id: string" style="text;strokeColor=none;fillColor=none;align=left;verticalAlign=top;spacingLeft=4;spacingRight=4;overflow=hidden;rotatable=0;points=[[0,0.5],[1,0.5]];portConstraint=eastwest;" parent="-uJzJ6gPzwEDHYAXKso4-2" vertex="1">
          <mxGeometry y="26" width="340" height="26" as="geometry" />
        </mxCell>
        <mxCell id="-uJzJ6gPzwEDHYAXKso4-4" value="+ Nombre: string" style="text;strokeColor=none;fillColor=none;align=left;verticalAlign=top;spacingLeft=4;spacingRight=4;overflow=hidden;rotatable=0;points=[[0,0.5],[1,0.5]];portConstraint=eastwest;" parent="-uJzJ6gPzwEDHYAXKso4-2" vertex="1">
          <mxGeometry y="52" width="340" height="26" as="geometry" />
        </mxCell>
        <mxCell id="-uJzJ6gPzwEDHYAXKso4-5" value="" style="line;strokeWidth=1;fillColor=none;align=left;verticalAlign=middle;spacingTop=-1;spacingLeft=3;spacingRight=3;rotatable=0;labelPosition=right;points=[];portConstraint=eastwest;" parent="-uJzJ6gPzwEDHYAXKso4-2" vertex="1">
          <mxGeometry y="78" width="340" height="8" as="geometry" />
        </mxCell>
        <mxCell id="-uJzJ6gPzwEDHYAXKso4-9" style="edgeStyle=orthogonalEdgeStyle;rounded=0;orthogonalLoop=1;jettySize=auto;html=1;fontFamily=Verdana;fontSize=10;endArrow=none;endFill=0;startArrow=block;startFill=0;strokeWidth=2;startSize=10;" parent="1" source="-uJzJ6gPzwEDHYAXKso4-2" target="vSx6mATfrNihocP2TiyH-15" edge="1">
          <mxGeometry relative="1" as="geometry">
            <mxPoint x="399.99999999999955" y="50.058823529411825" as="sourcePoint" />
            <mxPoint x="579.9999999999995" y="50.058823529411825" as="targetPoint" />
            <Array as="points">
              <mxPoint x="610" y="220" />
              <mxPoint x="833" y="220" />
            </Array>
          </mxGeometry>
        </mxCell>
        <mxCell id="-uJzJ6gPzwEDHYAXKso4-10" style="edgeStyle=orthogonalEdgeStyle;rounded=0;orthogonalLoop=1;jettySize=auto;html=1;fontFamily=Verdana;fontSize=10;endArrow=none;endFill=0;startArrow=block;startFill=0;strokeWidth=2;startSize=10;" parent="1" source="-uJzJ6gPzwEDHYAXKso4-2" target="vSx6mATfrNihocP2TiyH-28" edge="1">
          <mxGeometry relative="1" as="geometry">
            <mxPoint x="749.9411764705883" y="103" as="sourcePoint" />
            <mxPoint x="842.5294117647059" y="150" as="targetPoint" />
            <Array as="points">
              <mxPoint x="610" y="220" />
              <mxPoint x="255" y="220" />
            </Array>
          </mxGeometry>
        </mxCell>
        <mxCell id="-uJzJ6gPzwEDHYAXKso4-11" style="edgeStyle=orthogonalEdgeStyle;rounded=0;orthogonalLoop=1;jettySize=auto;html=1;fontFamily=Verdana;fontSize=10;strokeWidth=2;startArrow=diamondThin;startFill=1;endSize=6;startSize=15;" parent="1" source="-uJzJ6gPzwEDHYAXKso4-2" target="FSzWA0WFF1zu2NpBAVLJ-1" edge="1">
          <mxGeometry relative="1" as="geometry">
            <Array as="points">
              <mxPoint x="840" y="30" />
              <mxPoint x="840" y="30" />
            </Array>
            <mxPoint x="866.8799999999995" y="40.001176470588064" as="sourcePoint" />
            <mxPoint x="1053.13" y="40.001176470588064" as="targetPoint" />
          </mxGeometry>
        </mxCell>
        <mxCell id="-uJzJ6gPzwEDHYAXKso4-14" style="edgeStyle=orthogonalEdgeStyle;rounded=0;orthogonalLoop=1;jettySize=auto;html=1;fontFamily=Verdana;fontSize=10;endArrow=none;endFill=0;startArrow=open;startFill=0;dashed=1;strokeWidth=2;" parent="1" source="mH8yagIn12Yi0sGWKRNc-1" target="vSx6mATfrNihocP2TiyH-12" edge="1">
          <mxGeometry relative="1" as="geometry">
            <mxPoint x="100.05999999999955" y="-89.97117647058829" as="sourcePoint" />
            <mxPoint x="-139.9988235294117" y="-70.03" as="targetPoint" />
            <Array as="points">
              <mxPoint x="-100" y="-90" />
            </Array>
          </mxGeometry>
        </mxCell>
        <mxCell id="-uJzJ6gPzwEDHYAXKso4-15" style="edgeStyle=orthogonalEdgeStyle;rounded=0;orthogonalLoop=1;jettySize=auto;html=1;fontFamily=Verdana;fontSize=10;endArrow=none;endFill=0;startArrow=open;startFill=0;dashed=1;strokeWidth=2;" parent="1" source="mH8yagIn12Yi0sGWKRNc-1" target="-uJzJ6gPzwEDHYAXKso4-2" edge="1">
          <mxGeometry relative="1" as="geometry">
            <mxPoint x="209.99999999999955" y="-79.94117647058806" as="sourcePoint" />
            <mxPoint x="-129.9411764705883" y="80" as="targetPoint" />
            <Array as="points">
              <mxPoint x="600" y="-90" />
            </Array>
          </mxGeometry>
        </mxCell>
        <mxCell id="-uJzJ6gPzwEDHYAXKso4-16" style="edgeStyle=orthogonalEdgeStyle;rounded=0;orthogonalLoop=1;jettySize=auto;html=1;fontFamily=Verdana;fontSize=10;strokeWidth=2;startArrow=diamondThin;startFill=1;endSize=6;startSize=15;" parent="1" source="-uJzJ6gPzwEDHYAXKso4-2" target="vSx6mATfrNihocP2TiyH-94" edge="1">
          <mxGeometry relative="1" as="geometry">
            <Array as="points">
              <mxPoint x="1225" y="80" />
            </Array>
            <mxPoint x="789.9999999999995" y="40.05882352941171" as="sourcePoint" />
            <mxPoint x="929.9999999999995" y="40.05882352941171" as="targetPoint" />
          </mxGeometry>
        </mxCell>
        <mxCell id="-uJzJ6gPzwEDHYAXKso4-18" value="0...*" style="text;html=1;strokeColor=none;fillColor=none;align=center;verticalAlign=middle;whiteSpace=wrap;rounded=0;hachureGap=4;pointerEvents=0;fontSize=14;" parent="1" vertex="1">
          <mxGeometry x="780" y="50" width="30" height="25" as="geometry" />
        </mxCell>
        <mxCell id="-uJzJ6gPzwEDHYAXKso4-19" value="1" style="text;html=1;strokeColor=none;fillColor=none;align=center;verticalAlign=middle;whiteSpace=wrap;rounded=0;hachureGap=4;pointerEvents=0;fontSize=14;" parent="1" vertex="1">
          <mxGeometry x="1235" y="264.5" width="20" height="25" as="geometry" />
        </mxCell>
        <mxCell id="-uJzJ6gPzwEDHYAXKso4-20" value="0...*" style="text;html=1;strokeColor=none;fillColor=none;align=center;verticalAlign=middle;whiteSpace=wrap;rounded=0;hachureGap=4;pointerEvents=0;fontSize=14;" parent="1" vertex="1">
          <mxGeometry x="740" y="467.5" width="30" height="20" as="geometry" />
        </mxCell>
        <mxCell id="lGjiHJ0mUP-tkCvPlEmF-2" value="0...*" style="text;html=1;strokeColor=none;fillColor=none;align=center;verticalAlign=middle;whiteSpace=wrap;rounded=0;hachureGap=4;pointerEvents=0;fontSize=14;" vertex="1" parent="1">
          <mxGeometry x="805" y="470" width="40" height="20" as="geometry" />
        </mxCell>
      </root>
    </mxGraphModel>
  </diagram>
</mxfile>
